<?xml version="1.0" encoding="UTF-8"?>
<svg xmlns="http://www.w3.org/2000/svg" xmlns:xlink="http://www.w3.org/1999/xlink" viewBox="0 0 480 480" width="480px" height="480px">
<g id="surface23106854">
<path style=" stroke:none;fill-rule:nonzero;fill:rgb(94.509804%,76.862746%,5.882353%);fill-opacity:1;" d="M 240 480 C 107.453125 480 0 372.546875 0 240 C 0 107.453125 107.453125 0 240 0 C 372.546875 0 480 107.453125 480 240 C 480 372.546875 372.546875 480 240 480 Z M 240 480 "/>
<path style=" stroke:none;fill-rule:nonzero;fill:rgb(0%,0%,0%);fill-opacity:1;" d="M 186.539062 414.960938 C 183.625 414.960938 181.679688 413.015625 181.679688 410.101562 L 181.679688 69.898438 C 181.679688 66.984375 183.625 65.039062 186.539062 65.039062 C 189.457031 65.039062 191.398438 66.984375 191.398438 69.898438 L 191.398438 410.101562 C 191.398438 413.015625 189.457031 414.960938 186.539062 414.960938 Z M 186.539062 414.960938 "/>
<path style=" stroke:none;fill-rule:nonzero;fill:rgb(0%,0%,0%);fill-opacity:1;" d="M 293.460938 414.960938 C 290.542969 414.960938 288.601562 413.015625 288.601562 410.101562 L 288.601562 69.898438 C 288.601562 66.984375 290.542969 65.039062 293.460938 65.039062 C 296.375 65.039062 298.320312 66.984375 298.320312 69.898438 L 298.320312 410.101562 C 298.320312 413.015625 296.375 414.960938 293.460938 414.960938 Z M 293.460938 414.960938 "/>
<path style=" stroke:none;fill-rule:nonzero;fill:rgb(0%,0%,0%);fill-opacity:1;" d="M 410.101562 298.320312 L 69.898438 298.320312 C 66.984375 298.320312 65.039062 296.375 65.039062 293.460938 C 65.039062 290.542969 66.984375 288.601562 69.898438 288.601562 L 410.101562 288.601562 C 413.015625 288.601562 414.960938 290.542969 414.960938 293.460938 C 414.960938 296.375 413.015625 298.320312 410.101562 298.320312 Z M 410.101562 298.320312 "/>
<path style=" stroke:none;fill-rule:nonzero;fill:rgb(0%,0%,0%);fill-opacity:1;" d="M 410.101562 191.398438 L 69.898438 191.398438 C 66.984375 191.398438 65.039062 189.457031 65.039062 186.539062 C 65.039062 183.625 66.984375 181.679688 69.898438 181.679688 L 410.101562 181.679688 C 413.015625 181.679688 414.960938 183.625 414.960938 186.539062 C 414.960938 189.457031 413.015625 191.398438 410.101562 191.398438 Z M 410.101562 191.398438 "/>
<path style=" stroke:none;fill-rule:nonzero;fill:rgb(0%,0%,0%);fill-opacity:1;" d="M 213.757812 271.105469 C 212.785156 271.105469 210.839844 271.105469 209.867188 270.132812 C 207.925781 268.1875 207.925781 265.273438 209.867188 263.328125 L 261.382812 211.8125 C 263.328125 209.867188 266.242188 209.867188 268.1875 211.8125 C 270.132812 213.757812 270.132812 216.671875 268.1875 218.617188 L 217.644531 269.160156 C 216.671875 270.132812 215.699219 271.105469 213.757812 271.105469 Z M 213.757812 271.105469 "/>
<path style=" stroke:none;fill-rule:nonzero;fill:rgb(0%,0%,0%);fill-opacity:1;" d="M 266.242188 271.105469 C 265.273438 271.105469 263.328125 271.105469 262.355469 270.132812 L 210.839844 217.644531 C 208.894531 215.699219 208.894531 212.785156 210.839844 210.839844 C 212.785156 208.894531 215.699219 208.894531 217.644531 210.839844 L 269.160156 262.355469 C 271.105469 264.300781 271.105469 267.214844 269.160156 269.160156 C 268.1875 270.132812 267.214844 271.105469 266.242188 271.105469 Z M 266.242188 271.105469 "/>
<path style=" stroke:none;fill-rule:nonzero;fill:rgb(0%,0%,0%);fill-opacity:1;" d="M 330.394531 387.742188 C 329.425781 387.742188 327.480469 387.742188 326.507812 386.773438 C 324.5625 384.828125 324.5625 381.910156 326.507812 379.96875 L 378.023438 328.453125 C 379.96875 326.507812 382.882812 326.507812 384.828125 328.453125 C 386.773438 330.394531 386.773438 333.3125 384.828125 335.257812 L 334.285156 385.800781 C 333.3125 386.773438 332.339844 387.742188 330.394531 387.742188 Z M 330.394531 387.742188 "/>
<path style=" stroke:none;fill-rule:nonzero;fill:rgb(0%,0%,0%);fill-opacity:1;" d="M 382.882812 387.742188 C 381.910156 387.742188 379.96875 387.742188 378.996094 386.773438 L 327.480469 334.285156 C 325.535156 332.339844 325.535156 329.425781 327.480469 327.480469 C 329.425781 325.535156 332.339844 325.535156 334.285156 327.480469 L 385.800781 378.996094 C 387.742188 380.941406 387.742188 383.855469 385.800781 385.800781 C 384.828125 386.773438 383.855469 387.742188 382.882812 387.742188 Z M 382.882812 387.742188 "/>
<path style=" stroke:none;fill-rule:nonzero;fill:rgb(0%,0%,0%);fill-opacity:1;" d="M 97.117188 154.464844 C 96.144531 154.464844 94.199219 154.464844 93.226562 153.492188 C 91.285156 151.546875 91.285156 148.632812 93.226562 146.6875 L 145.714844 94.199219 C 147.660156 92.257812 150.574219 92.257812 152.519531 94.199219 C 154.464844 96.144531 154.464844 99.058594 152.519531 101.003906 L 101.003906 152.519531 C 100.03125 153.492188 99.058594 154.464844 97.117188 154.464844 Z M 97.117188 154.464844 "/>
<path style=" stroke:none;fill-rule:nonzero;fill:rgb(0%,0%,0%);fill-opacity:1;" d="M 149.605469 154.464844 C 148.632812 154.464844 146.6875 154.464844 145.714844 153.492188 L 94.199219 101.003906 C 92.257812 99.058594 92.257812 96.144531 94.199219 94.199219 C 96.144531 92.257812 99.058594 92.257812 101.003906 94.199219 L 152.519531 145.714844 C 154.464844 147.660156 154.464844 150.574219 152.519531 152.519531 C 151.546875 153.492188 150.574219 154.464844 149.605469 154.464844 Z M 149.605469 154.464844 "/>
<path style=" stroke:none;fill-rule:nonzero;fill:rgb(59.607846%,80.000001%,99.215686%);fill-opacity:1;" d="M 147.660156 240 C 147.660156 253.421875 136.78125 264.300781 123.359375 264.300781 C 109.941406 264.300781 99.058594 253.421875 99.058594 240 C 99.058594 226.578125 109.941406 215.699219 123.359375 215.699219 C 136.78125 215.699219 147.660156 226.578125 147.660156 240 Z M 147.660156 240 "/>
<path style=" stroke:none;fill-rule:nonzero;fill:rgb(0%,0%,0%);fill-opacity:1;" d="M 123.359375 269.160156 C 106.835938 269.160156 94.199219 256.523438 94.199219 240 C 94.199219 223.476562 106.835938 210.839844 123.359375 210.839844 C 139.882812 210.839844 152.519531 223.476562 152.519531 240 C 152.519531 256.523438 139.882812 269.160156 123.359375 269.160156 Z M 123.359375 220.558594 C 112.667969 220.558594 103.921875 229.308594 103.921875 240 C 103.921875 250.691406 112.667969 259.441406 123.359375 259.441406 C 134.050781 259.441406 142.800781 250.691406 142.800781 240 C 142.800781 229.308594 134.050781 220.558594 123.359375 220.558594 Z M 123.359375 220.558594 "/>
<path style=" stroke:none;fill-rule:nonzero;fill:rgb(59.607846%,80.000001%,99.215686%);fill-opacity:1;" d="M 147.660156 356.640625 C 147.660156 370.0625 136.78125 380.941406 123.359375 380.941406 C 109.941406 380.941406 99.058594 370.0625 99.058594 356.640625 C 99.058594 343.21875 109.941406 332.339844 123.359375 332.339844 C 136.78125 332.339844 147.660156 343.21875 147.660156 356.640625 Z M 147.660156 356.640625 "/>
<path style=" stroke:none;fill-rule:nonzero;fill:rgb(0%,0%,0%);fill-opacity:1;" d="M 123.359375 385.800781 C 106.835938 385.800781 94.199219 373.164062 94.199219 356.640625 C 94.199219 340.117188 106.835938 327.480469 123.359375 327.480469 C 139.882812 327.480469 152.519531 340.117188 152.519531 356.640625 C 152.519531 373.164062 139.882812 385.800781 123.359375 385.800781 Z M 123.359375 337.199219 C 112.667969 337.199219 103.921875 345.949219 103.921875 356.640625 C 103.921875 367.332031 112.667969 376.078125 123.359375 376.078125 C 134.050781 376.078125 142.800781 367.332031 142.800781 356.640625 C 142.800781 345.949219 134.050781 337.199219 123.359375 337.199219 Z M 123.359375 337.199219 "/>
<path style=" stroke:none;fill-rule:nonzero;fill:rgb(59.607846%,80.000001%,99.215686%);fill-opacity:1;" d="M 380.941406 123.359375 C 380.941406 136.78125 370.0625 147.660156 356.640625 147.660156 C 343.21875 147.660156 332.339844 136.78125 332.339844 123.359375 C 332.339844 109.941406 343.21875 99.058594 356.640625 99.058594 C 370.0625 99.058594 380.941406 109.941406 380.941406 123.359375 Z M 380.941406 123.359375 "/>
<path style=" stroke:none;fill-rule:nonzero;fill:rgb(0%,0%,0%);fill-opacity:1;" d="M 356.640625 152.519531 C 340.117188 152.519531 327.480469 139.882812 327.480469 123.359375 C 327.480469 106.835938 340.117188 94.199219 356.640625 94.199219 C 373.164062 94.199219 385.800781 106.835938 385.800781 123.359375 C 385.800781 139.882812 373.164062 152.519531 356.640625 152.519531 Z M 356.640625 103.921875 C 345.949219 103.921875 337.199219 112.667969 337.199219 123.359375 C 337.199219 134.050781 345.949219 142.800781 356.640625 142.800781 C 367.332031 142.800781 376.078125 134.050781 376.078125 123.359375 C 376.078125 112.667969 367.332031 103.921875 356.640625 103.921875 Z M 356.640625 103.921875 "/>
</g>
</svg>
